<mxfile host="app.diagrams.net" modified="2022-11-13T14:21:28.097Z" agent="5.0 (Windows)" etag="_UvWU9_S7Kpg7F4_bnHe" version="20.5.3" type="github">
  <diagram id="2r3a3Ik3IDcAuD9VeNqn" name="Page-1">
    <mxGraphModel dx="1422" dy="713" grid="1" gridSize="10" guides="1" tooltips="1" connect="1" arrows="1" fold="1" page="1" pageScale="1" pageWidth="827" pageHeight="1169" math="0" shadow="0">
      <root>
        <mxCell id="0" />
        <mxCell id="1" parent="0" />
        <mxCell id="Txt4FVW5bFcYyp8uFWQH-1" value="&lt;font style=&quot;font-size: 25px;&quot; face=&quot;Times New Roman&quot;&gt;&amp;nbsp;Système&lt;/font&gt;" style="verticalAlign=top;align=left;overflow=fill;fontSize=12;fontFamily=Helvetica;html=1;fillColor=#fff2cc;strokeColor=#d6b656;" parent="1" vertex="1">
          <mxGeometry x="200" y="230" width="330" height="610" as="geometry" />
        </mxCell>
        <mxCell id="Txt4FVW5bFcYyp8uFWQH-2" value="&lt;font style=&quot;font-size: 22px;&quot;&gt;User&lt;/font&gt;" style="shape=umlActor;verticalLabelPosition=bottom;verticalAlign=top;html=1;" parent="1" vertex="1">
          <mxGeometry x="100" y="440" width="50" height="105" as="geometry" />
        </mxCell>
        <mxCell id="Txt4FVW5bFcYyp8uFWQH-7" value="&lt;font style=&quot;font-size: 17px;&quot;&gt;Choisir Pseudo&lt;/font&gt;" style="ellipse;whiteSpace=wrap;html=1;fontFamily=Times New Roman;fontSize=22;fillColor=#ffe6cc;strokeColor=#d79b00;" parent="1" vertex="1">
          <mxGeometry x="230" y="280" width="100" height="70" as="geometry" />
        </mxCell>
        <mxCell id="Txt4FVW5bFcYyp8uFWQH-9" value="&lt;font style=&quot;font-size: 17px;&quot;&gt;Vérifier pseudo&lt;/font&gt;" style="ellipse;whiteSpace=wrap;html=1;fontFamily=Times New Roman;fontSize=22;fillColor=#ffe6cc;strokeColor=#d79b00;" parent="1" vertex="1">
          <mxGeometry x="380" y="280" width="100" height="70" as="geometry" />
        </mxCell>
        <mxCell id="Txt4FVW5bFcYyp8uFWQH-10" value="&lt;font style=&quot;font-size: 17px;&quot;&gt;Clavarder&lt;/font&gt;" style="ellipse;whiteSpace=wrap;html=1;fontFamily=Times New Roman;fontSize=22;fillColor=#ffe6cc;strokeColor=#d79b00;" parent="1" vertex="1">
          <mxGeometry x="235" y="620" width="90" height="65" as="geometry" />
        </mxCell>
        <mxCell id="Txt4FVW5bFcYyp8uFWQH-11" value="&lt;font style=&quot;font-size: 17px;&quot;&gt;Ouvrir session clavardage&lt;/font&gt;" style="ellipse;whiteSpace=wrap;html=1;fontFamily=Times New Roman;fontSize=22;fillColor=#ffe6cc;strokeColor=#d79b00;" parent="1" vertex="1">
          <mxGeometry x="220" y="495" width="120" height="60" as="geometry" />
        </mxCell>
        <mxCell id="Txt4FVW5bFcYyp8uFWQH-12" value="&lt;font style=&quot;font-size: 17px;&quot;&gt;Minimiser App&lt;/font&gt;" style="ellipse;whiteSpace=wrap;html=1;fontFamily=Times New Roman;fontSize=22;fillColor=#ffe6cc;strokeColor=#d79b00;" parent="1" vertex="1">
          <mxGeometry x="360" y="555" width="120" height="85" as="geometry" />
        </mxCell>
        <mxCell id="Txt4FVW5bFcYyp8uFWQH-13" value="&lt;font style=&quot;font-size: 17px;&quot;&gt;Mettre fin à la session &lt;/font&gt;" style="ellipse;whiteSpace=wrap;html=1;fontFamily=Times New Roman;fontSize=22;fillColor=#ffe6cc;strokeColor=#d79b00;" parent="1" vertex="1">
          <mxGeometry x="220" y="730" width="120" height="70" as="geometry" />
        </mxCell>
        <mxCell id="Txt4FVW5bFcYyp8uFWQH-15" value="&lt;font style=&quot;font-size: 17px;&quot;&gt;Deconnexion&lt;/font&gt;" style="ellipse;whiteSpace=wrap;html=1;fontFamily=Times New Roman;fontSize=22;fillColor=#ffe6cc;strokeColor=#d79b00;" parent="1" vertex="1">
          <mxGeometry x="380" y="440" width="110" height="80" as="geometry" />
        </mxCell>
        <mxCell id="Txt4FVW5bFcYyp8uFWQH-16" value="" style="endArrow=classic;html=1;rounded=0;fontFamily=Times New Roman;fontSize=17;exitX=1;exitY=0.5;exitDx=0;exitDy=0;entryX=0;entryY=0.5;entryDx=0;entryDy=0;" parent="1" source="Txt4FVW5bFcYyp8uFWQH-7" target="Txt4FVW5bFcYyp8uFWQH-9" edge="1">
          <mxGeometry width="50" height="50" relative="1" as="geometry">
            <mxPoint x="390" y="410" as="sourcePoint" />
            <mxPoint x="440" y="360" as="targetPoint" />
          </mxGeometry>
        </mxCell>
        <mxCell id="Txt4FVW5bFcYyp8uFWQH-17" value="&lt;font style=&quot;font-size: 12px;&quot;&gt;&amp;lt;&amp;lt;include&amp;gt;&amp;gt;&lt;/font&gt;" style="text;html=1;align=center;verticalAlign=middle;resizable=0;points=[];autosize=1;strokeColor=none;fillColor=none;fontSize=17;fontFamily=Times New Roman;" parent="1" vertex="1">
          <mxGeometry x="310" y="280" width="90" height="30" as="geometry" />
        </mxCell>
        <mxCell id="Txt4FVW5bFcYyp8uFWQH-19" value="&lt;font style=&quot;font-size: 17px;&quot;&gt;Voir liste utilisateur&lt;br&gt;&lt;/font&gt;" style="ellipse;whiteSpace=wrap;html=1;fontFamily=Times New Roman;fontSize=12;fillColor=#ffe6cc;strokeColor=#d79b00;" parent="1" vertex="1">
          <mxGeometry x="230" y="380" width="100" height="70" as="geometry" />
        </mxCell>
        <mxCell id="Txt4FVW5bFcYyp8uFWQH-20" value="" style="endArrow=classic;html=1;rounded=0;fontFamily=Times New Roman;fontSize=17;exitX=0.5;exitY=1;exitDx=0;exitDy=0;entryX=0.5;entryY=0;entryDx=0;entryDy=0;" parent="1" source="Txt4FVW5bFcYyp8uFWQH-7" target="Txt4FVW5bFcYyp8uFWQH-19" edge="1">
          <mxGeometry width="50" height="50" relative="1" as="geometry">
            <mxPoint x="390" y="410" as="sourcePoint" />
            <mxPoint x="440" y="360" as="targetPoint" />
          </mxGeometry>
        </mxCell>
        <mxCell id="Txt4FVW5bFcYyp8uFWQH-21" value="&lt;font style=&quot;font-size: 12px;&quot;&gt;&amp;lt;&amp;lt;extends&amp;gt;&amp;gt;&lt;/font&gt;" style="text;html=1;align=center;verticalAlign=middle;resizable=0;points=[];autosize=1;strokeColor=none;fillColor=none;fontSize=17;fontFamily=Times New Roman;" parent="1" vertex="1">
          <mxGeometry x="200" y="340" width="90" height="30" as="geometry" />
        </mxCell>
        <mxCell id="Txt4FVW5bFcYyp8uFWQH-22" value="" style="endArrow=classic;html=1;rounded=0;fontFamily=Times New Roman;fontSize=17;exitX=0.5;exitY=1;exitDx=0;exitDy=0;entryX=0.5;entryY=0;entryDx=0;entryDy=0;" parent="1" source="Txt4FVW5bFcYyp8uFWQH-19" target="Txt4FVW5bFcYyp8uFWQH-11" edge="1">
          <mxGeometry width="50" height="50" relative="1" as="geometry">
            <mxPoint x="340" y="325" as="sourcePoint" />
            <mxPoint x="390" y="325" as="targetPoint" />
          </mxGeometry>
        </mxCell>
        <mxCell id="Txt4FVW5bFcYyp8uFWQH-23" value="&lt;font style=&quot;font-size: 12px;&quot;&gt;&amp;lt;&amp;lt;extends&amp;gt;&amp;gt;&lt;/font&gt;" style="text;html=1;align=center;verticalAlign=middle;resizable=0;points=[];autosize=1;strokeColor=none;fillColor=none;fontSize=17;fontFamily=Times New Roman;" parent="1" vertex="1">
          <mxGeometry x="200" y="440" width="90" height="30" as="geometry" />
        </mxCell>
        <mxCell id="Txt4FVW5bFcYyp8uFWQH-24" value="&lt;font style=&quot;font-size: 12px;&quot;&gt;&amp;lt;&amp;lt;extends&amp;gt;&amp;gt;&lt;/font&gt;" style="text;html=1;align=center;verticalAlign=middle;resizable=0;points=[];autosize=1;strokeColor=none;fillColor=none;fontSize=17;fontFamily=Times New Roman;" parent="1" vertex="1">
          <mxGeometry x="270" y="555" width="90" height="30" as="geometry" />
        </mxCell>
        <mxCell id="Txt4FVW5bFcYyp8uFWQH-25" value="" style="endArrow=classic;html=1;rounded=0;fontFamily=Times New Roman;fontSize=17;exitX=0.5;exitY=1;exitDx=0;exitDy=0;entryX=0.5;entryY=0;entryDx=0;entryDy=0;" parent="1" source="Txt4FVW5bFcYyp8uFWQH-11" target="Txt4FVW5bFcYyp8uFWQH-10" edge="1">
          <mxGeometry width="50" height="50" relative="1" as="geometry">
            <mxPoint x="340" y="325" as="sourcePoint" />
            <mxPoint x="390" y="325" as="targetPoint" />
          </mxGeometry>
        </mxCell>
        <mxCell id="Txt4FVW5bFcYyp8uFWQH-27" value="" style="endArrow=classic;html=1;rounded=0;fontFamily=Times New Roman;fontSize=17;exitX=0.5;exitY=1;exitDx=0;exitDy=0;entryX=0.5;entryY=0;entryDx=0;entryDy=0;" parent="1" source="Txt4FVW5bFcYyp8uFWQH-10" target="Txt4FVW5bFcYyp8uFWQH-13" edge="1">
          <mxGeometry width="50" height="50" relative="1" as="geometry">
            <mxPoint x="340" y="325" as="sourcePoint" />
            <mxPoint x="390" y="325" as="targetPoint" />
          </mxGeometry>
        </mxCell>
        <mxCell id="Txt4FVW5bFcYyp8uFWQH-28" value="&lt;font style=&quot;font-size: 12px;&quot;&gt;&amp;lt;&amp;lt;extends&amp;gt;&amp;gt;&lt;/font&gt;" style="text;html=1;align=center;verticalAlign=middle;resizable=0;points=[];autosize=1;strokeColor=none;fillColor=none;fontSize=17;fontFamily=Times New Roman;" parent="1" vertex="1">
          <mxGeometry x="200" y="680" width="90" height="30" as="geometry" />
        </mxCell>
        <mxCell id="Txt4FVW5bFcYyp8uFWQH-29" value="&lt;div&gt;&lt;font style=&quot;font-size: 22px;&quot;&gt;User&lt;/font&gt;&lt;/div&gt;&lt;div&gt;&lt;font style=&quot;font-size: 22px;&quot;&gt;Externe&lt;br&gt;&lt;/font&gt;&lt;/div&gt;" style="shape=umlActor;verticalLabelPosition=bottom;verticalAlign=top;html=1;" parent="1" vertex="1">
          <mxGeometry x="600" y="440" width="50" height="105" as="geometry" />
        </mxCell>
        <mxCell id="Txt4FVW5bFcYyp8uFWQH-32" value="" style="endArrow=classic;html=1;rounded=0;fontFamily=Times New Roman;fontSize=12;exitX=0.5;exitY=0.5;exitDx=0;exitDy=0;exitPerimeter=0;entryX=0;entryY=0.5;entryDx=0;entryDy=0;" parent="1" source="Txt4FVW5bFcYyp8uFWQH-2" target="Txt4FVW5bFcYyp8uFWQH-7" edge="1">
          <mxGeometry width="50" height="50" relative="1" as="geometry">
            <mxPoint x="390" y="500" as="sourcePoint" />
            <mxPoint x="440" y="450" as="targetPoint" />
          </mxGeometry>
        </mxCell>
        <mxCell id="Txt4FVW5bFcYyp8uFWQH-33" value="" style="endArrow=classic;html=1;rounded=0;fontFamily=Times New Roman;fontSize=12;exitX=0.5;exitY=0.5;exitDx=0;exitDy=0;exitPerimeter=0;entryX=0;entryY=0.5;entryDx=0;entryDy=0;" parent="1" source="Txt4FVW5bFcYyp8uFWQH-2" target="Txt4FVW5bFcYyp8uFWQH-19" edge="1">
          <mxGeometry width="50" height="50" relative="1" as="geometry">
            <mxPoint x="390" y="500" as="sourcePoint" />
            <mxPoint x="440" y="450" as="targetPoint" />
          </mxGeometry>
        </mxCell>
        <mxCell id="Txt4FVW5bFcYyp8uFWQH-34" value="" style="endArrow=classic;html=1;rounded=0;fontFamily=Times New Roman;fontSize=12;exitX=0.5;exitY=0.5;exitDx=0;exitDy=0;exitPerimeter=0;entryX=0;entryY=0.5;entryDx=0;entryDy=0;" parent="1" source="Txt4FVW5bFcYyp8uFWQH-2" target="Txt4FVW5bFcYyp8uFWQH-11" edge="1">
          <mxGeometry width="50" height="50" relative="1" as="geometry">
            <mxPoint x="390" y="500" as="sourcePoint" />
            <mxPoint x="440" y="450" as="targetPoint" />
          </mxGeometry>
        </mxCell>
        <mxCell id="Txt4FVW5bFcYyp8uFWQH-35" value="" style="endArrow=classic;html=1;rounded=0;fontFamily=Times New Roman;fontSize=12;exitX=0.5;exitY=0.5;exitDx=0;exitDy=0;exitPerimeter=0;entryX=0;entryY=0.5;entryDx=0;entryDy=0;" parent="1" source="Txt4FVW5bFcYyp8uFWQH-2" target="Txt4FVW5bFcYyp8uFWQH-10" edge="1">
          <mxGeometry width="50" height="50" relative="1" as="geometry">
            <mxPoint x="390" y="500" as="sourcePoint" />
            <mxPoint x="440" y="450" as="targetPoint" />
          </mxGeometry>
        </mxCell>
        <mxCell id="Txt4FVW5bFcYyp8uFWQH-36" value="" style="endArrow=classic;html=1;rounded=0;fontFamily=Times New Roman;fontSize=12;entryX=1;entryY=0.5;entryDx=0;entryDy=0;exitX=0.5;exitY=0.5;exitDx=0;exitDy=0;exitPerimeter=0;" parent="1" source="Txt4FVW5bFcYyp8uFWQH-29" target="Txt4FVW5bFcYyp8uFWQH-10" edge="1">
          <mxGeometry width="50" height="50" relative="1" as="geometry">
            <mxPoint x="390" y="500" as="sourcePoint" />
            <mxPoint x="440" y="450" as="targetPoint" />
            <Array as="points">
              <mxPoint x="510" y="493" />
              <mxPoint x="510" y="653" />
            </Array>
          </mxGeometry>
        </mxCell>
        <mxCell id="Txt4FVW5bFcYyp8uFWQH-37" value="" style="endArrow=classic;html=1;rounded=0;fontFamily=Times New Roman;fontSize=12;exitX=0.5;exitY=0.5;exitDx=0;exitDy=0;exitPerimeter=0;entryX=0;entryY=0.5;entryDx=0;entryDy=0;" parent="1" source="Txt4FVW5bFcYyp8uFWQH-2" target="Txt4FVW5bFcYyp8uFWQH-13" edge="1">
          <mxGeometry width="50" height="50" relative="1" as="geometry">
            <mxPoint x="130" y="500" as="sourcePoint" />
            <mxPoint x="440" y="450" as="targetPoint" />
          </mxGeometry>
        </mxCell>
        <mxCell id="Txt4FVW5bFcYyp8uFWQH-38" value="" style="endArrow=classic;html=1;rounded=0;fontFamily=Times New Roman;fontSize=12;exitX=0.5;exitY=0.5;exitDx=0;exitDy=0;exitPerimeter=0;entryX=1;entryY=0.5;entryDx=0;entryDy=0;" parent="1" source="Txt4FVW5bFcYyp8uFWQH-29" target="Txt4FVW5bFcYyp8uFWQH-13" edge="1">
          <mxGeometry width="50" height="50" relative="1" as="geometry">
            <mxPoint x="390" y="500" as="sourcePoint" />
            <mxPoint x="440" y="450" as="targetPoint" />
            <Array as="points">
              <mxPoint x="570" y="493" />
              <mxPoint x="570" y="765" />
            </Array>
          </mxGeometry>
        </mxCell>
        <mxCell id="Txt4FVW5bFcYyp8uFWQH-39" value="" style="endArrow=classic;html=1;rounded=0;fontFamily=Times New Roman;fontSize=12;exitX=0.5;exitY=0.5;exitDx=0;exitDy=0;exitPerimeter=0;entryX=0;entryY=0.5;entryDx=0;entryDy=0;" parent="1" source="Txt4FVW5bFcYyp8uFWQH-2" target="Txt4FVW5bFcYyp8uFWQH-15" edge="1">
          <mxGeometry width="50" height="50" relative="1" as="geometry">
            <mxPoint x="390" y="500" as="sourcePoint" />
            <mxPoint x="440" y="450" as="targetPoint" />
            <Array as="points">
              <mxPoint x="250" y="480" />
            </Array>
          </mxGeometry>
        </mxCell>
        <mxCell id="Txt4FVW5bFcYyp8uFWQH-41" value="" style="endArrow=classic;html=1;rounded=0;fontFamily=Times New Roman;fontSize=12;exitX=0.5;exitY=0.5;exitDx=0;exitDy=0;exitPerimeter=0;entryX=0;entryY=0.5;entryDx=0;entryDy=0;" parent="1" source="Txt4FVW5bFcYyp8uFWQH-2" target="Txt4FVW5bFcYyp8uFWQH-12" edge="1">
          <mxGeometry width="50" height="50" relative="1" as="geometry">
            <mxPoint x="390" y="500" as="sourcePoint" />
            <mxPoint x="440" y="450" as="targetPoint" />
            <Array as="points">
              <mxPoint x="230" y="600" />
            </Array>
          </mxGeometry>
        </mxCell>
      </root>
    </mxGraphModel>
  </diagram>
</mxfile>
